HIERARCHY
ROOT hip
{
	OFFSET 0.000000 0.000000 0.000000 
	CHANNELS 6 Xposition Yposition Zposition Xrotation Zrotation Yrotation
	JOINT abdomen
	{
		OFFSET 0.000000 3.402643 0.000000 
		CHANNELS 3 Xrotation Zrotation Yrotation
		JOINT chest
		{
			OFFSET 0.000000 8.438565 -0.680529 
			CHANNELS 3 Xrotation Zrotation Yrotation
			JOINT neck
			{
				OFFSET 0.000000 10.207942 -0.272212 
				CHANNELS 3 Xrotation Zrotation Yrotation
				JOINT head
				{
					OFFSET 0.000000 3.130431 0.000000 
					CHANNELS 3 Xrotation Zrotation Yrotation
					End Site
					{
						OFFSET 0.000000 3.130435 0.000000 
					}
				}
			}
			JOINT lCollar
			{
				OFFSET 3.470700 6.669187 -0.816635 
				CHANNELS 3 Yrotation Zrotation Xrotation
				JOINT lShldr
				{
					OFFSET 3.198488 0.000000 0.000000 
					CHANNELS 3 Zrotation Yrotation Xrotation
					JOINT lForeArm
					{
						OFFSET 10.139888 0.000000 0.000000 
						CHANNELS 3 Yrotation Zrotation Xrotation
						JOINT lHand
						{
							OFFSET 8.370511 0.000000 0.000000 
							CHANNELS 3 Zrotation Yrotation Xrotation
							End Site
							{
								OFFSET 4.083176 0.000000 0.000000 
							}
						}
					}
				}
			}
			JOINT rCollar
			{
				OFFSET -3.470700 6.669187 -0.816635 
				CHANNELS 3 Yrotation Zrotation Xrotation
				JOINT rShldr
				{
					OFFSET -3.198488 0.000000 0.000000 
					CHANNELS 3 Zrotation Yrotation Xrotation
					JOINT rForeArm
					{
						OFFSET -10.139888 0.000000 0.000000 
						CHANNELS 3 Yrotation Zrotation Xrotation
						JOINT rHand
						{
							OFFSET -8.370511 0.000000 0.000000 
							CHANNELS 3 Zrotation Yrotation Xrotation
							End Site
							{
								OFFSET -4.083176 0.000000 0.000000 
							}
						}
					}
				}
			}
		}
	}
	JOINT lThigh
	{
		OFFSET 5.308129 -1.633274 1.361059 
		CHANNELS 3 Xrotation Zrotation Yrotation
		JOINT lShin
		{
			OFFSET -2.041588 -20.007561 0.000000 
			CHANNELS 3 Xrotation Zrotation Yrotation
			JOINT lFoot
			{
				OFFSET 0.000000 -19.190928 -1.224953 
				CHANNELS 3 Xrotation Yrotation Zrotation
				End Site
				{
					OFFSET 0.000000 -2.449906 4.627600 
				}
			}
		}
	}
	JOINT rThigh
	{
		OFFSET -5.308129 -1.633274 1.361059 
		CHANNELS 3 Xrotation Zrotation Yrotation
		JOINT rShin
		{
			OFFSET 2.041588 -20.007561 0.000000 
			CHANNELS 3 Xrotation Zrotation Yrotation
			JOINT rFoot
			{
				OFFSET 0.000000 -19.190928 -1.224953 
				CHANNELS 3 Xrotation Yrotation Zrotation
				End Site
				{
					OFFSET 0.000000 -2.449906 4.627600 
				}
			}
		}
	}
}
MOTION
Frames: 18
Frame Time: 0.016667
0.272288 53.359478 0.309778 -9.355407 2.350637 5.933143 22.743254 -0.552172 -1.506327 4.563759 1.415281 -2.793370 -0.669060 9.134191 -0.532752 6.524621 -5.909068 8.648943 -18.791941 -13.363287 -0.700241 -65.607391 13.043265 -28.238785 -24.106646 -5.000000 26.191315 -13.139927 -2.055320 12.395455 16.629133 18.200066 -0.971531 60.811661 -9.834522 -23.931915 24.337187 5.000000 21.960236 10.089471 -29.706665 -1.500590 16.351208 12.087142 3.894181 6.513428 -5.454406 -0.848693 -13.304523 2.041645 -5.028270 21.486382 -9.127771 -3.225408 -2.103279 2.561235 -0.026708 -6.885046 -21.152136 6.048864 
0.271249 53.359528 0.310813 -9.345034 2.360393 5.923388 22.733265 -0.555475 -1.497366 4.563834 1.405513 -2.793368 -0.669060 9.134191 -0.532752 6.524621 -5.909068 8.648943 -18.791819 -13.353537 -0.699738 -65.618004 13.051545 -28.245605 -24.102028 -5.000000 26.208576 -13.149470 -2.053224 12.395807 16.629133 18.200066 -0.971531 60.820717 -9.830562 -23.933584 24.327917 5.000000 21.962027 10.078215 -29.700491 -1.477226 16.350943 12.087007 3.874243 6.507637 -5.477151 -0.830134 -13.333726 2.030955 -5.033791 21.487745 -9.148259 -3.210579 -2.104647 2.571774 -0.046652 -6.863522 -21.123482 6.079621 
0.269812 53.359692 0.312377 -9.345034 2.360393 5.923388 22.732903 -0.546650 -1.494062 4.564150 1.395752 -2.793369 -0.678734 9.124536 -0.531292 6.523611 -5.908916 8.658656 -18.801584 -13.353536 -0.699737 -65.626404 13.055812 -28.243786 -24.110918 -5.000000 26.225538 -13.144697 -2.039037 12.372592 16.628958 18.190315 -0.971026 60.829460 -9.835124 -23.928827 24.322634 5.000000 21.929607 10.083414 -29.689194 -1.483755 16.350943 12.087009 3.874244 6.505043 -5.465250 -0.819953 -13.324263 2.068851 -5.014064 21.487745 -9.148257 -3.210579 -2.116655 2.574545 -0.047379 -6.862757 -21.120543 6.069839 
0.268283 53.359432 0.314636 -9.346443 2.350720 5.913228 22.732618 -0.544683 -1.472471 4.564150 1.395752 -2.803135 -0.698266 9.124535 -0.531292 6.525089 -5.899261 8.658657 -18.803654 -13.340637 -0.708229 -65.625984 13.064702 -28.239769 -24.117655 -5.000000 26.231995 -13.142316 -2.031943 12.360639 16.628784 18.180563 -0.970523 60.836399 -9.826457 -23.922195 24.307949 5.000000 21.913723 10.071892 -29.679853 -1.477097 16.363136 12.087465 3.884285 6.497042 -5.474557 -0.829204 -13.343455 2.066152 -5.026364 21.486025 -9.127657 -3.215439 -2.125851 2.555244 -0.027718 -6.872246 -21.126995 6.065142 
0.266909 53.358345 0.317730 -9.327918 2.341007 5.913228 22.722998 -0.535349 -1.468601 4.554547 1.405528 -2.793374 -0.688500 9.124536 -0.531292 6.513380 -5.918723 8.649949 -18.811350 -13.353535 -0.699738 -65.630402 13.072720 -28.257048 -24.113195 -5.000000 26.232573 -13.138900 -2.008873 12.375440 16.628611 18.170811 -0.970017 60.845150 -9.831020 -23.919107 24.304348 5.000000 21.899546 10.038735 -29.693352 -1.442864 16.349688 12.105248 3.878357 6.485388 -5.472960 -0.838067 -13.343987 2.052415 -5.011726 21.471043 -9.110321 -3.190121 -2.135862 2.544933 -0.067011 -6.860268 -21.094952 6.091899 
0.265460 53.356934 0.321384 -9.319771 2.321539 5.922984 22.703844 -0.535155 -1.468160 4.554475 1.415296 -2.793376 -0.688591 9.134191 -0.532752 6.501676 -5.938185 8.640235 -18.821239 -13.363287 -0.700241 -65.634834 13.080734 -28.276539 -24.099855 -5.000000 26.221096 -13.135799 -1.983585 12.399747 16.628611 18.170811 -0.970017 60.844830 -9.839545 -23.914352 24.304478 5.000000 21.882725 9.994592 -29.716663 -1.410430 16.354767 12.147824 3.876682 6.457933 -5.505522 -0.836780 -13.343826 1.995652 -5.030227 21.465885 -9.097990 -3.197613 -2.147659 2.548265 -0.057984 -6.842538 -21.064875 6.120549 
0.263425 53.356377 0.325008 -9.311408 2.311866 5.913226 22.694300 -0.531842 -1.476857 4.544951 1.415304 -2.783614 -0.688682 9.143845 -0.534212 6.491452 -5.947994 8.630525 -18.831003 -13.363288 -0.700241 -65.637047 13.084741 -28.285179 -24.102169 -5.000000 26.210014 -13.153164 -1.967856 12.407484 16.621918 18.168018 -0.981954 60.851452 -9.839408 -23.902971 24.291584 5.000000 21.874947 9.983352 -29.716904 -1.405590 16.349991 12.154203 3.878827 6.461409 -5.516308 -0.846905 -13.344354 2.061085 -4.996321 21.476715 -9.069804 -3.170253 -2.161974 2.521803 -0.087413 -6.845603 -21.103546 6.103230 
0.260847 53.356552 0.328633 -9.311802 2.311907 5.903467 22.703945 -0.532156 -1.476982 4.535495 1.405543 -2.773849 -0.678824 9.134191 -0.532752 6.484633 -5.928684 8.629516 -18.840645 -13.353536 -0.699738 -65.627350 13.107149 -28.274927 -24.115675 -5.000000 26.207266 -13.178339 -1.938484 12.423272 16.612326 18.177771 -0.982460 60.840279 -9.838657 -23.893000 24.284332 5.000000 21.857891 9.982812 -29.697714 -1.401966 16.363195 12.137302 3.904947 6.451262 -5.498251 -0.835635 -13.324271 2.071834 -5.012536 21.476715 -9.069805 -3.170254 -2.185895 2.526966 -0.088849 -6.866388 -21.082739 6.095196 
0.258492 53.356514 0.332624 -9.312197 2.311947 5.893710 22.694025 -0.529032 -1.486118 4.535805 1.395783 -2.754319 -0.669060 9.134191 -0.532752 6.486107 -5.919029 8.629516 -18.850412 -13.353536 -0.699738 -65.624283 13.120920 -28.256027 -24.131495 -5.000000 26.193439 -13.205235 -1.920640 12.431648 16.599663 18.190315 -0.971026 60.837849 -9.842476 -23.878279 24.265875 5.000000 21.851311 9.987754 -29.676834 -1.406699 16.370087 12.144881 3.917387 6.452066 -5.497047 -0.845328 -13.343032 2.057132 -5.042057 21.498180 -9.070482 -3.180341 -2.191951 2.522709 -0.069680 -6.890973 -21.070322 6.087806 
0.257246 53.355534 0.337073 -9.302431 2.311948 5.893710 22.684292 -0.532453 -1.476843 4.535329 1.395768 -2.764078 -0.668969 9.124536 -0.531292 6.484633 -5.928684 8.629516 -18.860054 -13.343783 -0.699234 -65.635323 13.120302 -28.269100 -24.120129 -5.000000 26.206688 -13.186469 -1.922617 12.440495 16.602560 18.177773 -0.982459 60.851139 -9.847932 -23.898218 24.286226 5.000000 21.855879 9.954585 -29.703196 -1.414323 16.385128 12.157844 3.919683 6.431632 -5.505989 -0.843995 -13.343169 2.072860 -5.033808 21.487270 -9.070088 -3.170314 -2.205222 2.536546 -0.080605 -6.911837 -21.032646 6.070020 
0.256101 53.354206 0.342099 -9.282899 2.311947 5.893710 22.654997 -0.532436 -1.476580 4.544857 1.395760 -2.764076 -0.668969 9.124536 -0.531292 6.483160 -5.938339 8.630523 -18.871889 -13.330874 -0.707723 -65.644585 13.106787 -28.275335 -24.104309 -5.000000 26.218063 -13.157523 -1.931151 12.430007 16.589550 18.170811 -0.970017 60.861992 -9.857206 -23.903439 24.302849 5.000000 21.861023 9.915926 -29.731260 -1.408717 16.358553 12.143752 3.917062 6.422850 -5.516546 -0.833797 -13.324388 2.105321 -4.995189 21.489956 -9.061575 -3.147750 -2.225677 2.518111 -0.090877 -6.903176 -21.039324 6.046993 
0.253807 53.352947 0.348183 -9.264372 2.302233 5.893709 22.635345 -0.522980 -1.472898 4.544619 1.395752 -2.773839 -0.668878 9.114880 -0.529832 6.501219 -5.947994 8.630525 -18.859932 -13.334033 -0.698731 -65.646370 13.119684 -28.279957 -24.092951 -5.000000 26.228859 -13.136386 -1.926043 12.427242 16.602036 18.148518 -0.980943 60.861992 -9.857206 -23.903439 24.297411 5.000000 21.843344 9.882465 -29.741570 -1.391138 16.365555 12.167431 3.920998 6.401863 -5.525509 -0.851959 -13.314613 2.152139 -4.970982 21.483486 -9.052370 -3.154786 -2.223373 2.506605 -0.100181 -6.877198 -21.028982 6.086287 
0.250230 53.351719 0.355456 -9.256613 2.282806 5.893706 22.625383 -0.517269 -1.460325 4.544542 1.405520 -2.793371 -0.680100 9.103767 -0.537906 6.512457 -5.938339 8.630524 -18.850166 -13.334033 -0.698731 -65.657410 13.119061 -28.290815 -24.106295 -5.000000 26.242794 -13.131646 -1.911855 12.403696 16.611624 18.138765 -0.980438 60.868626 -9.857072 -23.890387 24.271730 5.000000 21.806314 9.842974 -29.734348 -1.361616 16.370220 12.193753 3.907902 6.384312 -5.546150 -0.841282 -13.285325 2.131832 -4.981588 21.476563 -9.020291 -3.177359 -2.239816 2.493459 -0.071500 -6.878867 -21.041573 6.059455 
0.246539 53.350334 0.363419 -9.247850 2.273092 5.893705 22.595919 -0.502526 -1.443887 4.544227 1.415281 -2.822667 -0.680008 9.094111 -0.536446 6.530973 -5.938186 8.640235 -18.850166 -13.334033 -0.698731 -65.656982 13.127954 -28.286800 -24.106295 -5.000000 26.242792 -13.126918 -1.897664 12.380475 16.611450 18.129017 -0.979933 60.877689 -9.853118 -23.892059 24.251503 5.000000 21.784895 9.814730 -29.726875 -1.341788 16.368256 12.212607 3.902297 6.357655 -5.561959 -0.840252 -13.266351 2.151936 -4.949395 21.491234 -9.012496 -3.194721 -2.252233 2.496428 -0.052699 -6.880885 -20.994381 6.092306 
0.243280 53.348663 0.371919 -9.238704 2.263338 5.903076 22.595646 -0.489956 -1.449601 4.534537 1.405513 -2.822665 -0.670335 9.103768 -0.537906 6.538807 -5.957649 8.630524 -18.859932 -13.334033 -0.698731 -65.656982 13.127954 -28.286800 -24.099554 -5.000000 26.236334 -13.117689 -1.897541 12.389658 16.601858 18.138767 -0.980438 60.866192 -9.860896 -23.877333 24.246054 5.000000 21.769257 9.786500 -29.725895 -1.335617 16.378500 12.231947 3.906747 6.345316 -5.575873 -0.848754 -13.266026 2.171550 -4.950088 21.503042 -8.984600 -3.197258 -2.274235 2.489123 -0.063404 -6.878273 -21.002041 6.077416 
0.239877 53.346828 0.381164 -9.229943 2.253624 5.903076 22.585907 -0.480933 -1.445867 4.534934 1.385984 -2.812899 -0.659203 9.124536 -0.531292 6.538355 -5.967459 8.620811 -18.869699 -13.334033 -0.698730 -65.645508 13.137465 -28.271923 -24.095121 -5.000000 26.218794 -13.106098 -1.890322 12.387232 16.592270 18.148521 -0.980944 60.848064 -9.868802 -23.873989 24.247850 5.000000 21.777384 9.769768 -29.734293 -1.336067 16.393400 12.244864 3.899083 6.334013 -5.603860 -0.839212 -13.265893 2.199843 -4.935406 21.511389 -8.964128 -3.192206 -2.289669 2.474413 -0.073716 -6.874325 -21.019997 6.093630 
0.235577 53.345119 0.391182 -9.229943 2.253624 5.903076 22.566120 -0.480808 -1.446043 4.534697 1.385976 -2.812896 -0.639672 9.124536 -0.531292 6.537905 -5.977267 8.611098 -18.879463 -13.334032 -0.698731 -65.645081 13.146358 -28.267906 -24.088524 -5.000000 26.213770 -13.085278 -1.882985 12.393676 16.589375 18.161060 -0.969513 60.841114 -9.877461 -23.882288 24.249645 5.000000 21.783463 9.770024 -29.743889 -1.337844 16.408484 12.241794 3.919868 6.310558 -5.600440 -0.856917 -13.246881 2.198859 -4.914211 21.526926 -8.953116 -3.200046 -2.311728 2.467211 -0.074648 -6.883390 -21.013336 6.084103 
0.230438 53.343559 0.401951 -9.218785 2.263298 5.912834 22.556053 -0.477255 -1.455359 4.534140 1.395729 -2.822658 -0.619960 9.105223 -0.528371 6.528140 -5.977268 8.611098 -18.879585 -13.343784 -0.699234 -65.649933 13.145478 -28.289207 -24.086374 -5.000000 26.205719 -13.069900 -1.854926 12.396572 16.599138 18.161060 -0.969513 60.845348 -9.886873 -23.898886 24.238356 5.000000 21.810778 9.765037 -29.764750 -1.328196 16.431440 12.244004 3.910567 6.285982 -5.614090 -0.825588 -13.207571 2.227208 -4.899662 21.567606 -8.934541 -3.225281 -2.328748 2.464599 -0.075672 -6.922040 -21.015646 6.065328 
